<svg xmlns="http://www.w3.org/2000/svg" viewBox="0 0 64 64" width="48" height="48">
  <circle cx="24" cy="24" r="12" fill="#FFC107"/>
  <g stroke="#FFC107" stroke-width="3" stroke-linecap="round">
    <line x1="24" y1="4" x2="24" y2="8"/>
    <line x1="24" y1="40" x2="24" y2="44"/>
    <line x1="4" y1="24" x2="8" y2="24"/>
    <line x1="8" y1="8" x2="11" y2="11"/>
    <line x1="37" y1="11" x2="40" y2="8"/>
  </g>
  <path d="M18 46c-6 0-11-4.5-11-10s5-10 11-10c1.6-5 6.4-8.5 12-8.5 6.6 0 12.1 5 12.9 11.5 5.1.6 9.1 4.9 9.1 10 0 5.5-4.5 10-10 10H18z" fill="#B0BEC5"/>
</svg>